<?xml version="1.0" encoding="UTF-8" standalone="no"?>
<!-- Generator: Adobe Illustrator 16.0.0, SVG Export Plug-In . SVG Version: 6.00 Build 0)  -->

<svg
   xmlns:dc="http://purl.org/dc/elements/1.1/"
   xmlns:cc="http://creativecommons.org/ns#"
   xmlns:rdf="http://www.w3.org/1999/02/22-rdf-syntax-ns#"
   xmlns:svg="http://www.w3.org/2000/svg"
   xmlns="http://www.w3.org/2000/svg"
   xmlns:xlink="http://www.w3.org/1999/xlink"
   xmlns:sodipodi="http://sodipodi.sourceforge.net/DTD/sodipodi-0.dtd"
   xmlns:inkscape="http://www.inkscape.org/namespaces/inkscape"
   version="1.1"
   x="0px"
   y="0px"
   width="300"
   height="650.87457"
   viewBox="0 0 300.00001 650.87457"
   enable-background="new 0 0 841.889 595.281"
   xml:space="preserve"
   id="svg3849"
   sodipodi:docname="owl.svg"
   inkscape:version="0.92.2 2405546, 2018-03-11"><metadata
   id="metadata3855"><rdf:RDF><cc:Work
       rdf:about=""><dc:format>image/svg+xml</dc:format><dc:type
         rdf:resource="http://purl.org/dc/dcmitype/StillImage" /><dc:title></dc:title></cc:Work></rdf:RDF></metadata><defs
   id="defs3853">
		<defs
   id="defs3805">
			<rect
   y="0"
   x="0"
   height="595.28101"
   width="841.88898"
   id="SVGID_1_" />
		</defs>
		<clipPath
   id="SVGID_2_">
			<use
   height="100%"
   width="100%"
   y="0"
   x="0"
   style="overflow:visible"
   id="use3807"
   overflow="visible"
   xlink:href="#SVGID_1_" />
		</clipPath>
		
		
		
		
		
		
		
		
		
		
		
	</defs><sodipodi:namedview
   pagecolor="#ffffff"
   bordercolor="#666666"
   borderopacity="1"
   objecttolerance="10"
   gridtolerance="10"
   guidetolerance="10"
   inkscape:pageopacity="0"
   inkscape:pageshadow="2"
   inkscape:window-width="1856"
   inkscape:window-height="994"
   id="namedview3851"
   showgrid="true"
   fit-margin-top="0"
   fit-margin-left="0"
   fit-margin-right="0"
   fit-margin-bottom="0"
   inkscape:zoom="0.86472209"
   inkscape:cx="241.98149"
   inkscape:cy="280.02625"
   inkscape:window-x="29"
   inkscape:window-y="51"
   inkscape:window-maximized="0"
   inkscape:current-layer="svg3849"
   borderlayer="true"><inkscape:grid
     type="xygrid"
     id="grid4664"
     originx="10.437284"
     originy="40.437284" /></sodipodi:namedview>
<g
   id="Layer_1"
   transform="translate(-430.68072,46.942289)"
   style="opacity:0.4">
	<path
   inkscape:connector-curvature="0"
   id="path3810"
   transform="translate(162.656,37.642)"
   d="m 119.98242,220.18555 c -54.176998,0 -98.095701,43.9187 -98.095701,98.0957 0,54.177 43.918703,98.0957 98.095701,98.0957 54.177,0 98.0957,-43.9187 98.0957,-98.0957 0,-54.177 -43.9187,-98.0957 -98.0957,-98.0957 z m 0,19.20703 c 43.568,0 78.88867,35.31967 78.88867,78.88867 0,43.569 -35.32067,78.88867 -78.88867,78.88867 -43.568998,0 -78.88867,-35.31867 -78.88867,-78.88867 0,-43.57 35.319672,-78.88867 78.88867,-78.88867 z"
   clip-path="url(#SVGID_2_)"
   style="fill:#ffffff;fill-opacity:1" /><path
   inkscape:connector-curvature="0"
   id="path3814"
   d="M 345.532,337.773"
   clip-path="url(#SVGID_2_)"
   style="" /><path
   inkscape:connector-curvature="0"
   id="path3816"
   d="M 461.504,337.773"
   clip-path="url(#SVGID_2_)"
   style="fill:#ffffff;fill-opacity:1" /><path
   inkscape:connector-curvature="0"
   id="path3818"
   transform="translate(162.656,37.642)"
   d="m 259.82812,301.91992 c 0.392,10.726 3.49155,53.17691 -19.18945,84.25391 -15.899,21.784 -34.37437,33.3507 -44.60937,38.0957 8.207,37.711 28.04311,69.96452 72.03711,94.47852 31.509,-16.34 56.12934,-42.24252 70.15234,-94.47852 -45.809,-26.458 -65.72183,-80.82461 -62.67383,-122.34961 z m 9.01563,54.46875 c 7.294,29.619 17.73255,55.52953 49.56055,73.14453 -6.103,32.089 -25.24053,52.63213 -49.14453,68.95313 -27.876,-14.412 -46.72171,-36.45441 -54.09571,-68.19141 27.199,-17.715 47.36669,-42.00525 53.67969,-73.90625 z"
   clip-path="url(#SVGID_2_)"
   style="fill:#ffffff;fill-opacity:1" /><path
   style="fill:#ffffff;fill-opacity:1"
   inkscape:connector-curvature="0"
   id="path3822"
   d="m 328.208,355.139 c 0,25.167 -20.402,45.569 -45.569,45.569 -25.167,0 -45.569,-20.402 -45.569,-45.569 0,-25.167 20.402,-45.569 45.569,-45.569 25.167,0 45.569,20.402 45.569,45.569"
   clip-path="url(#SVGID_2_)" /><path
   inkscape:connector-curvature="0"
   id="path3824"
   transform="translate(162.656,37.642)"
   d="m 408.23047,220.18555 c -54.177,0 -98.0957,43.9187 -98.0957,98.0957 0,54.177 43.9187,98.0957 98.0957,98.0957 54.177,0 98.0957,-43.9187 98.0957,-98.0957 0,-54.177 -43.9187,-98.0957 -98.0957,-98.0957 z m 0,19.20703 c 43.569,0 78.88867,35.31967 78.88867,78.88867 0,43.569 -35.31967,78.88867 -78.88867,78.88867 -43.569,0 -78.88867,-35.31867 -78.88867,-78.88867 0,-43.57 35.31967,-78.88867 78.88867,-78.88867 z"
   clip-path="url(#SVGID_2_)"
   style="fill:#ffffff;fill-opacity:1" /><path
   style="fill:#ffffff;fill-opacity:1"
   inkscape:connector-curvature="0"
   id="path3828"
   d="m 616.457,355.139 c 0,25.167 -20.402,45.569 -45.569,45.569 -25.167,0 -45.569,-20.402 -45.569,-45.569 0,-25.167 20.402,-45.569 45.569,-45.569 25.167,0 45.569,20.402 45.569,45.569"
   clip-path="url(#SVGID_2_)" /><g
   id="g3832"
   clip-path="url(#SVGID_2_)"
   style="fill:#ffffff;fill-opacity:1">
			<path
   style="fill:#ffffff;fill-opacity:1"
   inkscape:connector-curvature="0"
   id="path3830"
   d="m 430.342,93.411 c 38.975,0 77.158,8.832 111.775,25.695 -52.709,15.176 -94.97,60.304 -111.775,118.375 -16.807,-58.071 -59.065,-103.199 -111.774,-118.375 34.616,-16.863 72.8,-25.695 111.774,-25.695 m -251.812,71.71 c 13.722,19.887 35.076,32.71 59.036,32.71 4.34,0 7.858,-3.985 7.858,-8.9 0,-4.915 -3.518,-8.9 -7.858,-8.9 -32.64,0 -59.195,-30.075 -59.195,-67.041 V 98.479 c 13.716,20.006 35.152,32.903 59.195,32.903 h 41.908 c 4,0 7.959,0.198 11.877,0.565 0.655,0.161 1.33,0.226 2.008,0.193 59.537,6.526 108.501,54.574 123.994,118.184 -17.355,-30.963 -44.458,-54.658 -77.161,-64.867 -4.182,-1.301 -8.509,1.478 -9.662,6.217 -1.155,4.737 1.303,9.638 5.487,10.943 25.358,7.916 46.902,25.023 62.146,47.598 -16.733,-14.255 -37.516,-22.72 -60.018,-22.72 H 237.566 c -31.253,0 -56.909,-27.578 -59.036,-62.374 M 438.2,340.812 c 0,-52.669 37.833,-95.52 84.338,-95.52 h 72.521 25.104 2.955 c 12.685,0 24.638,-3.601 35.119,-9.931 l 13.075,-10.028 c 16.321,-15.575 26.715,-38.875 26.715,-64.881 V 46.541 c 0,-4.915 -3.518,-8.899 -7.857,-8.899 -4.339,0 -7.858,3.984 -7.858,8.899 0,36.968 -26.554,67.043 -59.193,67.043 H 581.21 c -4.041,0 -8.048,0.174 -12.015,0.512 -41.812,-25.179 -89.76,-38.484 -138.853,-38.484 -49.093,0 -97.042,13.305 -138.853,38.484 -3.966,-0.338 -7.973,-0.512 -12.015,-0.512 h -41.908 c -32.64,0 -59.195,-30.075 -59.195,-67.043 0,-4.915 -3.518,-8.899 -7.857,-8.899 -4.34,0 -7.858,3.984 -7.858,8.899 v 113.912 c 0,26.006 10.394,49.306 26.715,64.881 l 13.074,10.028 c 10.482,6.33 22.436,9.931 35.121,9.931 h 2.954 25.104 72.521 c 46.505,0 84.339,42.85 84.339,95.52 M 623.118,227.495 h -100.58 c -22.502,0 -43.285,8.465 -60.016,22.719 15.242,-22.576 36.787,-39.683 62.145,-47.597 4.186,-1.308 6.641,-6.207 5.489,-10.944 -1.153,-4.74 -5.481,-7.519 -9.664,-6.217 -32.702,10.21 -59.806,33.904 -77.161,64.867 15.495,-63.619 64.472,-111.673 124.021,-118.186 0.103,0.004 0.204,0.021 0.308,0.021 0.537,0 1.067,-0.081 1.591,-0.204 3.943,-0.372 7.932,-0.572 11.959,-0.572 h 41.909 c 24.042,0 45.479,-12.897 59.193,-32.903 v 14.511 c 0,36.966 -26.554,67.041 -59.193,67.041 -4.34,0 -7.858,3.985 -7.858,8.9 0,4.915 3.519,8.9 7.858,8.9 23.96,0 45.314,-12.823 59.036,-32.71 -2.128,34.796 -27.784,62.374 -59.037,62.374" />
		</g>
	
</g>

<g
   id="Layer_3"
   transform="translate(-430.68072,46.942289)"
   style="fill:#ffffff;fill-opacity:1;opacity:0.4">
	<path
   d="m 591.039,182.415 h -33.525 c -4.339,0 -7.858,3.945 -7.858,8.811 0,4.866 3.52,8.811 7.858,8.811 h 33.525 c 4.34,0 7.86,-3.944 7.86,-8.811 0,-4.866 -3.52,-8.811 -7.86,-8.811 z"
   id="path3844"
   inkscape:connector-curvature="0"
   style="fill:#ffffff;fill-opacity:1" />
	<path
   d="m 304.617,182.415 h -33.525 c -4.339,0 -7.858,3.945 -7.858,8.811 0,4.866 3.52,8.811 7.858,8.811 h 33.525 c 4.34,0 7.86,-3.944 7.86,-8.811 0.001,-4.866 -3.52,-8.811 -7.86,-8.811 z"
   id="path3846"
   inkscape:connector-curvature="0"
   style="fill:#ffffff;fill-opacity:1" />
</g>
</svg>